<?xml version="1.0" encoding="utf-8"?><svg version="1.1" id="Layer_1" xmlns="http://www.w3.org/2000/svg" xmlns:xlink="http://www.w3.org/1999/xlink" x="0px" y="0px" width="160px" height="90px" viewBox="0 0 160 90" style="enable-background:new 0 0 160 90;" xml:space="preserve"><style type="text/css">.st0{fill:#256A78;}</style><path class="st0" d="M9,54.2H8.5c-6,0-8.5-3.4-8.5-7.5s2.5-7.5,8.5-7.5H9V37H12v2.3h0.5c6,0,8.5,3.4,8.5,7.5s-2.5,7.5-8.5,7.5H12v2.7H9V54.2z M9,42H8.5c-3.8,0-5.5,2.1-5.5,4.8s1.7,4.8,5.5,4.8H9V42z M12,51.5h0.6c3.8,0,5.5-2.1,5.5-4.8S16.4,42,12.5,42H12V51.5z M49.1,45.4l7.4-7.7h3.9l-8.7,8.7l8.7,10.5h-3.9l-6.8-8.5L49.1,49v7.9h-2.9V37.7h2.9V45.4z M68.3,40.5v16.4h-2.9V40.5H61v-2.8h11.7v2.8H68.3z M93.8,47.3c0,5.6-4.2,10-10,10c-5.8,0-10-4.3-10-10s4.2-10,10-10C89.6,37.4,93.8,41.7,93.8,47.3z M90.9,47.3c0-4.3-2.9-7.3-7.1-7.3c-4.1,0-7.1,3-7.1,7.3s2.9,7.3,7.1,7.3C87.9,54.6,90.9,51.6,90.9,47.3z M97.5,37.7h9.6v2.8h-6.7v16.4h-2.9V37.7z M114,37.7c1.2,0,2.8,0.1,4.2,1c1.6,1.1,2.4,2.9,2.4,4.7c0,1.1-0.3,2.8-1.9,4.2c-1.5,1.3-3.3,1.5-4.7,1.5h-1.3v7.8h-2.9V37.7H114z M112.7,46.4h1.3c2.5,0,3.7-1.2,3.7-3c0-1.1-0.4-3-3.8-3h-1.3V46.4z M134,52.3h-8.2l-2.1,4.6h-3.2l9.6-20.3l9.1,20.3h-3.2L134,52.3z M132.9,49.5L130,43l-3,6.5H132.9z M148,54.2h-0.5c-6,0-8.5-3.4-8.5-7.5s2.5-7.5,8.5-7.5h0.5V37h2.9v2.3h0.5c6,0,8.5,3.4,8.5,7.5s-2.5,7.5-8.5,7.5H151v2.7H148V54.2z M148,42h-0.6c-3.8,0-5.5,2.1-5.5,4.8s1.7,4.8,5.5,4.8h0.6V42z M151,51.5h0.6c3.8,0,5.5-2.1,5.5-4.8s-1.7-4.8-5.5-4.8H151V51.5z M37.3,42.5L35.7,46l1.4,3.3h-2.9l-1.2,2.9h5.3l2.1,4.8h3.3L37.3,42.5z M34.3,35.9l-8.4,18l-1.5-2.6H21l3.4,5.7h0h3.3l2.2-4.8l1.3-2.9l3.1-6.7l1.6-3.4L34.3,35.9z"/></svg>